<svg xmlns="http://www.w3.org/2000/svg" xmlns:xlink="http://www.w3.org/1999/xlink" width="450.698" height="389.123" x="0" y="0" enable-background="new 0 0 450.698 389.123" version="1.1" viewBox="0 0 450.698 389.123" xml:space="preserve"><g id="Confirmation"><g><path fill="#CCC" d="M201,113v54h-63v-54H201 M215,99h-91v82h91V99L215,99z"/><path fill="#CCC" d="M312,113v54h-63v-54H312 M326,99h-91v82h91V99L326,99z"/><path fill="#CCC" d="M201,218v53h-63v-53H201 M215,204h-91v81h91V204L215,204z"/><path fill="#CCC" d="M312,218v53h-63v-53H312 M326,204h-91v81h91V204L326,204z"/></g></g></svg>