<svg xmlns="http://www.w3.org/2000/svg" xmlns:svg="http://www.w3.org/2000/svg" id="svg1007" width="35" height="35" version="1.1" viewBox="0 0 35 35"><metadata id="metadata1011"/><title id="title994">Shape</title><desc id="desc996">Created with Sketch.</desc><g id="Page-1" transform="translate(9.765485,8.1055394)" style="fill:none;fill-opacity:.6;fill-rule:evenodd;stroke:none;stroke-width:1"><g id="Epic-edit-and-view" transform="translate(-287,-581)" style="fill:#4762f2;fill-rule:nonzero"><g id="Group-18" transform="translate(277,486)"><g id="Group-19-Copy-13" transform="translate(0,88)"><g id="502734204"><g id="profile-user" transform="translate(10,7)"><path id="Shape" d="m 7.6596,0.4848 c 2.496,0 4.5186,2.0232 4.5186,4.518 0,2.4954 -2.0226,4.518 -4.5186,4.518 -2.4948,0 -4.5174,-2.0226 -4.5174,-4.518 0,-2.4948 2.0226,-4.518 4.5174,-4.518 z m -0.003,19.6626 c -2.4894,0 -4.7694,-0.9066 -6.528,-2.4072 C 0.7002,17.3748 0.453,16.839 0.453,16.2768 c 0,-2.5302 2.0478,-4.5552 4.5786,-4.5552 h 5.2572 c 2.5314,0 4.5714,2.025 4.5714,4.5552 0,0.5628 -0.246,1.0974 -0.675,1.4628 -1.758,1.5012 -4.0386,2.4078 -6.5286,2.4078 z"/></g></g></g></g></g></g></svg>